PathFileType	4	(X/Y/Z)	E:\Qualisys_Data\Carbon_Farble_Plate\Data\Amateur_Runner\S14\T1\S14T1V13_c3d.trc
DataRate	CameraRate	NumFrames	NumMarkers	Units	OrigDataRate	OrigDataStartFrame	OrigNumFrames
200.000000	200.000000	4	39	mm	200.000000	84	339
Frame#	Time	LSHO			RSHO			LICST			RICST			LASIS			LHEEL			RASIS			LTROC			RTROC			SACR			LTH1			LSK4			LTH2			LTH3			RHM5			LSK2			LTH4			RTH1			LTOE			RTH2			RTH3			RTH4			LLEP			RLEP			LSK1			LSK3			RSK1			LHM5			RSK2			LFT1			RSK3			RSK4			LLME			RLME			RTOE			RHEEL			RFT1			RFT2			LFT2			
		X1	Y1	Z1	X2	Y2	Z2	X3	Y3	Z3	X4	Y4	Z4	X5	Y5	Z5	X6	Y6	Z6	X7	Y7	Z7	X8	Y8	Z8	X9	Y9	Z9	X10	Y10	Z10	X11	Y11	Z11	X12	Y12	Z12	X13	Y13	Z13	X14	Y14	Z14	X15	Y15	Z15	X16	Y16	Z16	X17	Y17	Z17	X18	Y18	Z18	X19	Y19	Z19	X20	Y20	Z20	X21	Y21	Z21	X22	Y22	Z22	X23	Y23	Z23	X24	Y24	Z24	X25	Y25	Z25	X26	Y26	Z26	X27	Y27	Z27	X28	Y28	Z28	X29	Y29	Z29	X30	Y30	Z30	X31	Y31	Z31	X32	Y32	Z32	X33	Y33	Z33	X34	Y34	Z34	X35	Y35	Z35	X36	Y36	Z36	X37	Y37	Z37	X38	Y38	Z38	X39	Y39	Z39	

85	0.42	-1304.65478515625	1502.67822265625	-577.3295288085938	-1197.87109375	1496.215698242188	-300.1714782714844	-1302.99365234375	1049.98193359375	-539.3360595703125	-1259.858032226562	1047.818603515625	-270.1228942871094	-1259.767822265625	999.7467041015624	-515.2490234375	-1227.019775390625	136.6326904296875	-449.8346557617188	-1242.435546875	1000.941528320312	-286.6920166015625	-1388.533813476562	933.5457763671876	-557.3756713867188	-1403.876953125	974.3366088867188	-230.6619110107422	-1418.31982421875	1061.911376953125	-397.6421203613281	-1221.262329101562	730.4646606445312	-554.8212890625	-1223.474365234375	358.557373046875	-522.980712890625	-1288.98583984375	698.2966918945312	-535.064697265625	-1170.69580078125	645.961669921875	-532.0888671875	-1781.1064453125	141.8467864990234	-282.8934631347656	-1224.788940429688	457.8897705078125	-535.2326049804688	-1243.254760742188	613.3015747070312	-520.0585327148438	-1363.327514648438	708.0634765625	-239.9104156494141	-969.6681518554688	174.6052856445312	-481.12744140625	-1434.616821289062	740.2161865234375	-232.6537017822266	-1399.577392578125	617.9403076171875	-268.6604614257812	-1478.299438476562	649.750244140625	-254.5362548828125	-1172.763549804688	571.9259643554688	-525.5450439453125	-1493.692626953125	575.049560546875	-263.5983276367188	-1142.911376953125	460.5922241210938	-530.4110107421875	-1142.725830078125	358.4861755371094	-521.3526000976562	-1557.995483398438	466.1570739746094	-263.0621032714844	-1034.095703125	145.3594207763672	-539.0429077148438	-1622.61083984375	522.1383056640625	-266.1441955566406	-1206.724609375	115.726318359375	-423.6240539550781	-1629.891967773438	391.1831359863281	-275.1266784667969	-1684.966430664062	449.5107727050781	-279.7497863769531	-1173.51611328125	177.1327514648438	-509.086669921875	-1778.4365234375	295.3981323242188	-298.8081970214844	-1732.6220703125	85.22179412841797	-341.8409423828125	-1815.952026367188	331.963134765625	-354.2723693847656	-1830.4853515625	308.7158813476562	-390.2610168457031	-1839.618041992188	320.2420959472656	-333.6179504394531	-1219.517211914062	110.0830230712891	-478.019775390625
86	0.425	-1289.599243164062	1501.56982421875	-577.889404296875	-1181.859619140625	1495.863891601562	-301.0086975097656	-1285.880004882812	1048.635620117188	-539.2355346679688	-1243.97119140625	1047.490234375	-270.1368713378906	-1243.127075195312	998.3534545898438	-514.4359130859375	-1198.44287109375	131.6671752929688	-447.1213989257812	-1226.609252929688	1000.179504394531	-286.1673583984375	-1372.312866210938	931.6845703125	-556.45263671875	-1387.558471679688	974.1212768554688	-230.6156768798828	-1402.490600585938	1061.301147460938	-398.1354064941406	-1206.07470703125	726.8580322265625	-556.1926879882812	-1205.982666015625	354.3583068847656	-521.683837890625	-1274.7978515625	696.4758911132812	-535.3757934570312	-1157.619506835938	642.042236328125	-532.6680297851562	-1771.293579101562	148.7990875244141	-281.5873107910156	-1208.3642578125	453.7834167480469	-532.8971557617188	-1230.703979492188	610.6556396484375	-519.556884765625	-1347.130615234375	707.0773315429688	-240.5745849609375	-944.7943115234376	177.701171875	-481.6722717285156	-1417.93359375	739.3063354492188	-232.695068359375	-1384.302734375	617.1915893554688	-269.5087280273438	-1461.517211914062	648.8718872070312	-254.1270599365234	-1160.126953125	568.3553466796875	-525.3828735351562	-1477.344604492188	574.5784301757812	-263.6257629394531	-1127.950561523438	458.2698669433594	-530.0618286132812	-1124.911499023438	356.1842956542969	-521.1964721679688	-1544.164916992188	467.0816345214844	-262.9540100097656	-1008.381591796875	146.3565826416016	-539.2437744140625	-1607.481811523438	524.561767578125	-266.760498046875	-1179.17919921875	111.7774505615234	-422.1986694335938	-1617.99658203125	393.978515625	-275.767578125	-1671.0712890625	453.2827758789062	-280.3244323730469	-1148.549438476562	174.2348480224609	-507.868896484375	-1767.541015625	301.8428955078125	-300.4197998046875	-1722.676147460938	90.3940658569336	-339.9905090332031	-1805.2646484375	337.0473022460938	-356.5322875976562	-1819.53955078125	313.3877563476562	-391.8550415039062	-1828.872436523438	325.6917724609375	-335.4361267089844	-1192.599365234375	105.5762939453125	-476.1823425292969
87	0.43	-1274.222534179688	1500.436279296875	-578.638671875	-1166.394897460938	1495.095092773438	-302.2633972167969	-1269.208374023438	1046.877319335938	-539.1143798828125	-1227.658203125	1046.35791015625	-270.1314697265625	-1226.685668945312	996.598876953125	-513.6754150390625	-1174.534423828125	127.1171035766602	-446.8255920410156	-1210.48681640625	999.3932495117188	-286.3783874511719	-1356.750854492188	929.5013427734376	-556.1494750976562	-1371.830810546875	973.4640502929688	-230.5630493164062	-1386.013916015625	1059.931030273438	-398.3517456054688	-1192.078979492188	723.4407958984375	-557.658447265625	-1188.2255859375	349.4748840332031	-520.0172119140625	-1261.433715820312	694.2069091796875	-535.2035522460938	-1144.618774414062	638.2301025390625	-533.524169921875	-1761.302368164062	154.7847747802734	-281.1850891113281	-1194.90966796875	448.7420654296875	-532.9891967773438	-1218.211303710938	607.8972778320312	-518.7647094726562	-1330.237426757812	706.4026489257812	-240.466796875	-921.0166015625	180.6768798828125	-481.9998474121094	-1401.170654296875	738.22314453125	-232.3848571777344	-1367.02197265625	616.4251098632812	-268.7405090332031	-1445.135375976562	648.2313232421875	-254.5026245117188	-1147.549560546875	564.3056030273438	-524.9391479492188	-1460.383666992188	573.522216796875	-262.9397888183594	-1113.146728515625	455.6022338867188	-529.5709838867188	-1107.572631835938	354.0336608886719	-520.751708984375	-1529.712768554688	468.5098571777344	-262.4139099121094	-984.3405151367188	146.7451477050781	-539.3759155273438	-1591.813598632812	526.9029541015625	-267.2809448242188	-1153.435546875	108.1093215942383	-420.3149108886719	-1605.043334960938	396.8652038574219	-276.4612121582031	-1657.266479492188	457.2272644042969	-281.9442138671875	-1125.113891601562	171.1827545166016	-506.8262634277344	-1757.1328125	307.146728515625	-302.0014038085938	-1712.756103515625	95.3884735107422	-337.934814453125	-1794.0361328125	342.3355712890625	-358.7747192382812	-1808.176879882812	317.8533020019531	-393.6587219238281	-1818.30712890625	331.5096130371094	-337.8445434570312	-1165.115966796875	100.574104309082	-473.5706787109375
88	0.435	-1258.653442382812	1499.3603515625	-579.2142944335938	-1150.8515625	1493.929443359375	-302.9247741699219	-1253.760986328125	1045.033325195312	-539.0980834960938	-1211.900146484375	1045.136352539062	-270.3731079101562	-1210.411010742188	994.8253173828124	-513.317626953125	-1150.264526367188	123.4784774780273	-445.1896057128906	-1194.451293945312	998.4165649414062	-286.2024230957031	-1340.867797851562	927.8483276367188	-555.9330444335938	-1355.296997070312	972.321533203125	-230.7517852783203	-1370.239135742188	1057.980224609375	-398.8846435546875	-1178.12841796875	719.4828491210938	-559.196044921875	-1170.4541015625	345.6439208984375	-518.4708251953125	-1248.160522460938	691.9268798828125	-535.1323852539062	-1131.571044921875	633.9053955078125	-534.0543212890625	-1750.582397460938	160.2940826416016	-280.6445922851562	-1180.707275390625	444.3785095214844	-531.8324584960938	-1205.183715820312	605.0538940429688	-518.1309204101562	-1312.999389648438	705.0629272460938	-241.0078125	-898.6824340820312	182.819091796875	-483.1285400390625	-1384.122314453125	736.640625	-231.8526000976562	-1347.868774414062	614.9775390625	-268.0572509765625	-1427.78125	646.5126953125	-254.0223693847656	-1135.146484375	560.65185546875	-524.6904296875	-1443.9677734375	572.5377197265625	-263.3621215820312	-1098.401733398438	452.8189086914062	-529.2487182617188	-1089.971069335938	351.3839111328125	-520.8198852539062	-1515.126831054688	468.8751220703125	-262.5313720703125	-961.7015991210938	147.6915283203125	-539.335693359375	-1576.00732421875	528.6583862304688	-268.0243530273438	-1128.909912109375	104.6186447143555	-419.2344970703125	-1591.969604492188	399.4442138671875	-276.7767333984375	-1642.58203125	460.0306091308594	-282.6737365722656	-1103.049438476562	167.7538604736328	-504.9708251953125	-1745.259887695312	312.5858459472656	-302.905029296875	-1702.510986328125	100.4059448242188	-337.2955322265625	-1782.266967773438	347.5210876464844	-360.0777893066406	-1796.248657226562	322.7876892089844	-395.3151550292969	-1806.951782226562	337.8428344726562	-340.1740417480469	-1140.92529296875	97.12147521972656	-472.0317687988281
